<svg width="432" height="60" viewBox="0 0 432 60" fill="none" xmlns="http://www.w3.org/2000/svg">
<path d="M0 14V8H40V14H23V58.5H16V14H0Z" fill="#133C6D"/>
<circle cx="64.5062" cy="52.5" r="7.5" fill="#C4C4C4"/>
<path fill-rule="evenodd" clip-rule="evenodd" d="M125.006 0H94.0062C94.0062 0 90.9498 0.229341 89.5062 1.5C88.0627 2.77066 87.0062 6 87.0062 6C87.0062 6 86.5062 51 87.0062 53C87.5062 55 88.5062 56.5 89.5062 57.5C90.5062 58.5 93.5062 59 93.5062 59H126.506C126.506 59 129.364 57.9454 130.506 56.5C131.541 55.191 132.006 52.5 132.006 52.5V6.5C132.006 5 131.162 3.23647 130.006 2C128.809 0.719157 126.506 0 125.006 0ZM91.5062 7.5H127.006V47.5H91.5062V7.5ZM114.506 54.5H104.506V51.5H114.506V54.5Z" fill="#133C6D"/>
<circle cx="154.506" cy="52.5" r="7.5" fill="#C4C4C4"/>
<path d="M181.506 58.5H175.6L185.006 8.5H187.506L200.506 45.5L212.006 8.5H214.506L224.506 58.5H218.506L212.006 26L201.006 59H199.506L187.506 26L181.506 58.5Z" fill="#133C6D"/>
<circle cx="244.506" cy="52.5" r="7.5" fill="#C4C4C4"/>
<path fill-rule="evenodd" clip-rule="evenodd" d="M267.506 59.5H276.006L279.506 49.5H297.506L301.006 59.5H308.506L289.506 8.5H288.006L267.506 59.5ZM288.506 21L296.506 44H280.506L288.506 21Z" fill="#133C6D"/>
<circle cx="333.506" cy="52.5" r="7.5" fill="#C4C4C4"/>
<path d="M391.506 10.0001L389.506 15.0001L382.506 13.0001C377.254 12.1154 375.306 12.6733 372.506 17C371.536 22.154 371.753 23.7335 374.506 26.5L388.006 33.5C393.142 37.713 394.396 41.4676 394.006 48.0001C391.807 53.4308 389.851 55.7453 384.506 58.0001C380.651 59.0062 377.632 59.0706 373.006 59.0001L369.006 58.0001L366.006 56.0001L368.506 50.5001L378.006 53.5001C383.188 52.7838 385.29 51.6912 387.006 48.0001C387.937 43.7205 387.359 41.5187 384.006 38.0001L376.506 34.5001L370.006 30.5001C365.094 24.4471 364.046 20.2313 368.006 12.5C374.864 5.87171 380.506 5.50005 391.506 10.0001Z" fill="#133C6D"/>
<circle cx="423.506" cy="52.5" r="7.5" fill="#C4C4C4"/>
</svg>
