<svg width="429" height="60" viewBox="0 0 429 60" fill="none" xmlns="http://www.w3.org/2000/svg">
<path d="M0 13V7H40V13H23V57.5H16V13H0Z" fill="white"/>
<circle cx="61.5062" cy="52.5" r="7.5" fill="#C4C4C4"/>
<path fill-rule="evenodd" clip-rule="evenodd" d="M122.006 0H91.0062C91.0062 0 87.9497 0.229341 86.5062 1.5C85.0626 2.77066 84.0062 6 84.0062 6C84.0062 6 83.5062 51 84.0062 53C84.5062 55 85.5062 56.5 86.5062 57.5C87.5062 58.5 90.5062 59 90.5062 59H123.506C123.506 59 126.364 57.9454 127.506 56.5C128.54 55.191 129.006 52.5 129.006 52.5V6.5C129.006 5 128.162 3.23647 127.006 2C125.809 0.719157 123.506 0 122.006 0ZM88.5062 7.5H124.006V47.5H88.5062V7.5ZM111.506 54.5H101.506V51.5H111.506V54.5Z" fill="white"/>
<circle cx="151.506" cy="52.5" r="7.5" fill="#C4C4C4"/>
<path d="M178.506 58.5H172.6L182.006 8.5H184.506L197.506 45.5L209.006 8.5H211.506L221.506 58.5H215.506L209.006 26L198.006 59H196.506L184.506 26L178.506 58.5Z" fill="white"/>
<circle cx="241.506" cy="52.5" r="7.5" fill="#C4C4C4"/>
<path fill-rule="evenodd" clip-rule="evenodd" d="M264.506 59.5H273.006L276.506 49.5H294.506L298.006 59.5H305.506L286.506 8.5H285.006L264.506 59.5ZM285.506 21L293.506 44H277.506L285.506 21Z" fill="white"/>
<circle cx="330.506" cy="52.5" r="7.5" fill="#C4C4C4"/>
<path d="M388.506 10L386.506 15L379.506 13C374.254 12.1154 372.306 12.6732 369.506 16.9999C368.536 22.1539 368.753 23.7334 371.506 26.4999L385.006 33.4999C390.142 37.713 391.396 41.4676 391.006 48C388.807 53.4308 386.851 55.7453 381.506 58C377.651 59.0062 374.632 59.0705 370.006 59L366.006 58L363.006 56L365.506 50.5L375.006 53.5C380.188 52.7838 382.29 51.6912 384.006 48C384.937 43.7204 384.359 41.5187 381.006 38L373.506 34.5L367.006 30.5C362.094 24.447 361.046 20.2312 365.006 12.5C371.864 5.87165 377.506 5.49999 388.506 10Z" fill="white"/>
<circle cx="420.506" cy="52.5" r="7.5" fill="#C4C4C4"/>
</svg>
